<?xml version="1.0" encoding="UTF-8"?>
<svg xmlns="http://www.w3.org/2000/svg" viewBox="0 0 47.69 62.92">
  <defs>
    <style>.cls-1{fill:none;stroke:#4d4d4d;stroke-miterlimit:10;stroke-width:2px;}</style>
  </defs>
  <g id="Layer_2" data-name="Layer 2">
    <g id="Layer_1-2" data-name="Layer 1">
      <path class="cls-1" d="M42.88,6.71V25.36c2.41,1.2,3.81,2.64,3.81,4.2A22.81,22.81,0,0,1,36.36,48.65L38.91,57a3.8,3.8,0,0,1-3.64,4.91H12.42A3.8,3.8,0,0,1,8.78,57l2.55-8.36A22.81,22.81,0,0,1,1,29.56c0-1.56,1.4-3,3.81-4.2V6.71H2.9A1.91,1.91,0,0,1,1,4.81V2.9A1.91,1.91,0,0,1,2.9,1H44.79a1.91,1.91,0,0,1,1.9,1.9V4.81a1.91,1.91,0,0,1-1.9,1.9ZM40.46,29.56c0-2.11-7.44-3.81-16.61-3.81S7.23,27.45,7.23,29.56s7.44,3.81,16.62,3.81S40.46,31.66,40.46,29.56ZM10.52,11.47a1,1,0,0,0,1,.95h5.71a1,1,0,0,0,.95-.95V9.57a.94.94,0,0,0-.95-1H11.47a1,1,0,0,0-1,1Z"></path>
    </g>
  </g>
</svg>
