<?xml version="1.0" encoding="UTF-8"?>
<svg xmlns="http://www.w3.org/2000/svg" viewBox="0 0 55.43 62.81">
  <defs>
    <style>.cls-1{fill:none;stroke:#4d4d4d;stroke-miterlimit:10;stroke-width:2px;}</style>
  </defs>
  <g id="Layer_2" data-name="Layer 2">
    <g id="Layer_1-2" data-name="Layer 1">
      <path class="cls-1" d="M44.52,8.5H51.6c1.56,0,2.83.85,2.83,1.9V59.9c0,1.06-1.27,1.91-2.83,1.91H44.52c-1.56,0-2.83-.85-2.83-1.91V10.4C41.69,9.35,43,8.5,44.52,8.5ZM23.71,1h7.08c1.56,0,2.83.85,2.83,1.9V52.4c0,1.06-1.27,1.91-2.83,1.91H23.71c-1.57,0-2.83-.85-2.83-1.91V2.9C20.88,1.85,22.14,1,23.71,1ZM3.83,8.5h7.08c1.56,0,2.83.85,2.83,1.9V59.9c0,1.06-1.27,1.91-2.83,1.91H3.83C2.27,61.81,1,61,1,59.9V10.4C1,9.35,2.27,8.5,3.83,8.5Z"></path>
    </g>
  </g>
</svg>
