<?xml version="1.0" encoding="UTF-8"?>
<svg xmlns="http://www.w3.org/2000/svg" viewBox="0 0 70.55 56.24">
  <defs>
    <style>.cls-1{fill:none;stroke:#4d4d4d;stroke-linecap:square;stroke-miterlimit:10;stroke-width:2px;}</style>
  </defs>
  <g id="Layer_2" data-name="Layer 2">
    <g id="Layer_1-2" data-name="Layer 1">
      <path class="cls-1" d="M69.55,28.22a1.62,1.62,0,0,1-.33.9l-3,3.69a1.42,1.42,0,0,1-2,.19l-28-23a1.64,1.64,0,0,0-.91-.32,1.67,1.67,0,0,0-.91.32L6.37,33a1.62,1.62,0,0,1-.9.33,1.62,1.62,0,0,1-1.11-.52l-3-3.69A1.68,1.68,0,0,1,1,28.21a1.61,1.61,0,0,1,.52-1.1L31.64,2.3A6.62,6.62,0,0,1,35.27,1,6.65,6.65,0,0,1,38.9,2.3l10.65,8.77V2.43A1.43,1.43,0,0,1,51,1h6.66a1.43,1.43,0,0,1,1.43,1.43V18.91L69,27.11A1.63,1.63,0,0,1,69.55,28.22ZM35.27,15.44a1.65,1.65,0,0,1,.91.33L58.12,33.82V53.34a1.9,1.9,0,0,1-1.91,1.9l-13.33,0A1.9,1.9,0,0,1,41,53.3h0V41.91a1.9,1.9,0,0,0-1.9-1.9H31.46a1.9,1.9,0,0,0-1.9,1.9V53.3a1.91,1.91,0,0,1-1.9,1.91l-13.33,0a1.9,1.9,0,0,1-1.9-1.9V33.83L34.36,15.77A1.68,1.68,0,0,1,35.27,15.44Z"></path>
    </g>
  </g>
</svg>
