<?xml version="1.0" encoding="UTF-8"?>
<svg xmlns="http://www.w3.org/2000/svg" viewBox="0 0 124.84 21">
  <defs>
    <style>.cls-1{fill:#519bc1;}</style>
  </defs>
  <g id="Layer_2" data-name="Layer 2">
    <g id="Layer_1-2" data-name="Layer 1">
      <path class="cls-1" d="M12.15.73l2.68,5.43,6,.87a1.32,1.32,0,0,1,.73,2.24L17.21,13.5l1,6a1.32,1.32,0,0,1-1.91,1.38L11,18,5.61,20.85a1.31,1.31,0,0,1-1.9-1.38l1-6L.4,9.27A1.31,1.31,0,0,1,1.12,7l6-.87L9.8.73A1.31,1.31,0,0,1,12.15.73Z"></path>
      <path class="cls-1" d="M37.87.73l2.68,5.43,6,.87a1.31,1.31,0,0,1,.73,2.24L42.93,13.5l1,6a1.31,1.31,0,0,1-1.9,1.38L36.7,18l-5.36,2.82a1.32,1.32,0,0,1-1.91-1.38l1-6L26.12,9.27A1.31,1.31,0,0,1,26.85,7l6-.87L35.52.73A1.31,1.31,0,0,1,37.87.73Z"></path>
      <path class="cls-1" d="M63.6.73l2.68,5.43,6,.87A1.31,1.31,0,0,1,73,9.27L68.66,13.5l1,6a1.32,1.32,0,0,1-1.91,1.38L62.42,18l-5.36,2.82a1.31,1.31,0,0,1-1.9-1.38l1-6L51.85,9.27A1.31,1.31,0,0,1,52.57,7l6-.87L61.25.73A1.31,1.31,0,0,1,63.6.73Z"></path>
      <path class="cls-1" d="M89.32.73,92,6.16,98,7a1.31,1.31,0,0,1,.73,2.24L94.39,13.5l1,6a1.31,1.31,0,0,1-1.9,1.38L88.15,18l-5.36,2.82a1.32,1.32,0,0,1-1.91-1.38l1-6L77.57,9.27A1.31,1.31,0,0,1,78.3,7l6-.87L87,.73A1.31,1.31,0,0,1,89.32.73Z"></path>
      <path class="cls-1" d="M115.05.73l2.68,5.43,6,.87a1.31,1.31,0,0,1,.73,2.24l-4.34,4.23,1,6a1.32,1.32,0,0,1-1.91,1.38L113.87,18l-5.36,2.82a1.31,1.31,0,0,1-1.9-1.38l1-6L103.3,9.27A1.31,1.31,0,0,1,104,7l6-.87L112.7.73A1.31,1.31,0,0,1,115.05.73Z"></path>
    </g>
  </g>
</svg>
