<?xml version="1.0" encoding="UTF-8"?>
<svg xmlns="http://www.w3.org/2000/svg" viewBox="0 0 51.43 54.89">
  <defs>
    <style>.cls-1{fill:none;stroke:#4d4d4d;stroke-miterlimit:10;stroke-width:2px;}</style>
  </defs>
  <g id="Layer_2" data-name="Layer 2">
    <g id="Layer_1-2" data-name="Layer 1">
      <path class="cls-1" d="M13.58,39.15H25c1.9,0,3.43,1.06,3.43,2.37v10c0,1.31-1.53,2.37-3.43,2.37H13.58c-1.9,0-3.43-1.06-3.43-2.37v-10C10.15,40.21,11.68,39.15,13.58,39.15ZM32.13,51.52v-10c0-1.31,1.54-2.37,3.43-2.37H47c1.89,0,3.43,1.06,3.43,2.37v10c0,1.31-1.54,2.37-3.43,2.37H35.56C33.67,53.89,32.13,52.83,32.13,51.52ZM19.29,22.45v10c0,1.31-1.53,2.37-3.43,2.37H4.43C2.54,34.82,1,33.76,1,32.45v-10c0-1.31,1.54-2.37,3.43-2.37H15.86C17.76,20.08,19.29,21.14,19.29,22.45Zm3.69,10v-10c0-1.31,1.54-2.37,3.43-2.37H37.85c1.89,0,3.43,1.06,3.43,2.37v10c0,1.31-1.54,2.37-3.43,2.37H26.41C24.52,34.82,23,33.76,23,32.45Zm2-16.71H13.58c-1.9,0-3.43-1.06-3.43-2.37v-10C10.15,2.06,11.68,1,13.58,1H25c1.9,0,3.43,1.06,3.43,2.37v10C28.44,14.68,26.91,15.74,25,15.74Zm22,0H35.56c-1.89,0-3.43-1.06-3.43-2.37v-10C32.13,2.06,33.67,1,35.56,1H47c1.89,0,3.43,1.06,3.43,2.37v10C50.43,14.68,48.89,15.74,47,15.74Z"></path>
    </g>
  </g>
</svg>
